<?xml version="1.0" encoding="UTF-8"?>
<svg width="256" height="256" viewBox="0 0 256 256" fill="none" xmlns="http://www.w3.org/2000/svg">
  <defs>
    <linearGradient id="bg" x1="0" y1="0" x2="256" y2="256" gradientUnits="userSpaceOnUse">
      <stop offset="0%" stop-color="#4f46e5"/>
      <stop offset="100%" stop-color="#9333ea"/>
    </linearGradient>
    <linearGradient id="gloss" x1="64" y1="32" x2="192" y2="160" gradientUnits="userSpaceOnUse">
      <stop offset="0" stop-color="#ffffff" stop-opacity="0.35"/>
      <stop offset="1" stop-color="#ffffff" stop-opacity="0"/>
    </linearGradient>
    <filter id="shadow" x="-50%" y="-50%" width="200%" height="200%">
      <feDropShadow dx="0" dy="6" stdDeviation="12" flood-color="#000" flood-opacity="0.22"/>
    </filter>
  </defs>
  <g filter="url(#shadow)">
    <rect x="16" y="16" width="224" height="224" rx="112" fill="url(#bg)"/>
    <path d="M128 136c22.091 0 40-17.909 40-40s-17.909-40-40-40-40 17.909-40 40 17.909 40 40 40Z" fill="#ffffff" fill-opacity="0.95"/>
    <path d="M128 150c-40 0-72 24-80 56 0 0 32 26 80 26s80-26 80-26c-8-32-40-56-80-56Z" fill="#ffffff" fill-opacity="0.95"/>
    <path d="M32 72c32-32 160-32 192 0 16 16 16 96 0 112-32 32-160 32-192 0C16 168 16 88 32 72Z" fill="url(#gloss)"/>
  </g>
</svg>
